<svg width="700pt" height="700pt" version="1.1" viewBox="0 0 700 700" xmlns="http://www.w3.org/2000/svg">
 <g>
  <path d="m379.93 390c0 16.566-13.43 29.996-29.996 29.996-16.566 0-29.996-13.43-29.996-29.996s13.43-29.992 29.996-29.992c16.566 0 29.996 13.426 29.996 29.992"/>
  <path d="m349.93 140c-45.465 0-82.738 35.664-85.348 80.5-0.15625 2.7461 2.082 5.0039 4.8477 5.0039h45.988c2.7656 0 4.9688-2.2578 5.4258-4.9883 2.3789-13.895 14.523-24.516 29.086-24.516 16.273 0 29.504 13.246 29.504 29.504 0 11.812-7.0352 19.406-20.562 32.898-15.594 15.594-36.941 36.961-36.941 72.52v9.1016c0 2.7461 2.2383 4.9883 5.0039 4.9883h45.988c2.7461 0 4.9883-2.2383 4.9883-4.9883v-9.1016c0-11.828 7.0508-19.406 20.547-32.918 15.629-15.594 36.961-36.941 36.961-72.52 0.015625-47.141-38.359-85.484-85.488-85.484z"/>
  <path d="m350 35c-135.31 0-245 109.69-245 245s109.69 245 245 245 245-109.69 245-245-109.69-245-245-245zm0 437.5c-106.14 0-192.5-86.379-192.5-192.5 0-106.14 86.363-192.5 192.5-192.5 106.12 0 192.5 86.363 192.5 192.5 0 106.12-86.379 192.5-192.5 192.5z"/>
 </g>
</svg>
