<?xml version="1.0" encoding="UTF-8"?>
<svg width="700pt" height="700pt" version="1.1" viewBox="0 0 700 700" xmlns="http://www.w3.org/2000/svg">
 <path d="m350 35c-135.31 0-245 109.69-245 245s109.69 245 245 245 245-109.69 245-245-109.69-245-245-245zm0 388.52c-16.574 0-30.012-13.441-30.012-30.012 0-16.574 13.441-30.012 30.012-30.012 16.574 0 30.012 13.441 30.012 30.012 0 16.574-13.438 30.012-30.012 30.012zm47.688-129.32c-14.488 14.488-22.699 23.344-22.699 37.328v6.9844c0 2.7812-2.2383 5.0039-4.9883 5.0039h-40.023c-2.7461 0-4.9883-2.2383-4.9883-5.0039v-6.9844c0-35.367 20.703-56.051 37.328-72.676 14.492-14.508 22.684-23.398 22.684-37.348 0-19.301-15.68-35-35-35-19.301 0-35 15.699-35 35 0 2.7656-2.2383 4.9883-4.9883 4.9883h-40.004c-2.7656 0-4.9883-2.2227-4.9883-4.9883 0-46.863 38.098-84.996 84.98-84.996 46.898 0 84.961 38.133 84.961 85.016 0 35.332-20.648 56.035-37.273 72.676z"/>
</svg>
